<svg xmlns="http://www.w3.org/2000/svg" viewBox="0 0 460.775 460.775" xmlns:v="https://vecta.io/nano"><path d="M285.08 230.397L456.218 59.27a15.54 15.54 0 0 0 0-21.986L423.511 4.565a15.55 15.55 0 0 0-10.992-4.55 15.55 15.55 0 0 0-10.993 4.55l-171.138 171.14L59.25 4.565A15.55 15.55 0 0 0 48.257.015a15.55 15.55 0 0 0-10.992 4.55L4.558 37.284a15.54 15.54 0 0 0 0 21.986l171.138 171.128L4.575 401.505c-6.074 6.077-6.074 15.911 0 21.986l32.709 32.719c2.911 2.911 6.865 4.55 10.992 4.55s8.08-1.639 10.994-4.55l171.117-171.12 171.118 171.12a15.55 15.55 0 0 0 10.993 4.55c4.128 0 8.081-1.639 10.992-4.55l32.709-32.719c6.074-6.075 6.074-15.909 0-21.986L285.08 230.397z"/></svg>